<mxfile host="app.diagrams.net" modified="2023-05-10T04:11:20.680Z" agent="Mozilla/5.0 (Windows NT 10.0; Win64; x64; rv:109.0) Gecko/20100101 Firefox/112.0" etag="wxYiEOguHxEtUOEbQdRS" version="21.2.9" type="device">
  <diagram name="Page-1" id="DrEQx_gd-WHRcXb1W8-q">
    <mxGraphModel dx="2284" dy="718" grid="1" gridSize="10" guides="1" tooltips="1" connect="1" arrows="1" fold="1" page="1" pageScale="1" pageWidth="850" pageHeight="1100" math="0" shadow="0">
      <root>
        <mxCell id="0" />
        <mxCell id="1" parent="0" />
        <mxCell id="wQ8Cvjj7H3a0NGJ6GMs6-5" value="App (Start)" style="swimlane;fontStyle=0;childLayout=stackLayout;horizontal=1;startSize=30;horizontalStack=0;resizeParent=1;resizeParentMax=0;resizeLast=0;collapsible=1;marginBottom=0;whiteSpace=wrap;html=1;fillColor=#dae8fc;strokeColor=#6c8ebf;" vertex="1" parent="1">
          <mxGeometry x="-100" y="250" width="190" height="120" as="geometry" />
        </mxCell>
        <mxCell id="wQ8Cvjj7H3a0NGJ6GMs6-8" value="Creates NavigationStore" style="text;strokeColor=none;fillColor=none;align=left;verticalAlign=middle;spacingLeft=4;spacingRight=4;overflow=hidden;points=[[0,0.5],[1,0.5]];portConstraint=eastwest;rotatable=0;whiteSpace=wrap;html=1;" vertex="1" parent="wQ8Cvjj7H3a0NGJ6GMs6-5">
          <mxGeometry y="30" width="190" height="30" as="geometry" />
        </mxCell>
        <mxCell id="wQ8Cvjj7H3a0NGJ6GMs6-7" value="Creates Main Window" style="text;strokeColor=none;fillColor=none;align=left;verticalAlign=middle;spacingLeft=4;spacingRight=4;overflow=hidden;points=[[0,0.5],[1,0.5]];portConstraint=eastwest;rotatable=0;whiteSpace=wrap;html=1;" vertex="1" parent="wQ8Cvjj7H3a0NGJ6GMs6-5">
          <mxGeometry y="60" width="190" height="30" as="geometry" />
        </mxCell>
        <mxCell id="wQ8Cvjj7H3a0NGJ6GMs6-6" value="Creates first viewModel" style="text;strokeColor=none;fillColor=none;align=left;verticalAlign=middle;spacingLeft=4;spacingRight=4;overflow=hidden;points=[[0,0.5],[1,0.5]];portConstraint=eastwest;rotatable=0;whiteSpace=wrap;html=1;" vertex="1" parent="wQ8Cvjj7H3a0NGJ6GMs6-5">
          <mxGeometry y="90" width="190" height="30" as="geometry" />
        </mxCell>
        <mxCell id="wQ8Cvjj7H3a0NGJ6GMs6-9" value="MainWindow.Xaml" style="swimlane;fontStyle=0;childLayout=stackLayout;horizontal=1;startSize=30;horizontalStack=0;resizeParent=1;resizeParentMax=0;resizeLast=0;collapsible=1;marginBottom=0;whiteSpace=wrap;html=1;fillColor=#d5e8d4;strokeColor=#82b366;" vertex="1" parent="1">
          <mxGeometry x="250" y="230" width="240" height="160" as="geometry" />
        </mxCell>
        <mxCell id="wQ8Cvjj7H3a0NGJ6GMs6-10" value="Has Grid.Resources (keyvalue pair to other views" style="text;strokeColor=none;fillColor=none;align=left;verticalAlign=middle;spacingLeft=4;spacingRight=4;overflow=hidden;points=[[0,0.5],[1,0.5]];portConstraint=eastwest;rotatable=0;whiteSpace=wrap;html=1;" vertex="1" parent="wQ8Cvjj7H3a0NGJ6GMs6-9">
          <mxGeometry y="30" width="240" height="50" as="geometry" />
        </mxCell>
        <mxCell id="wQ8Cvjj7H3a0NGJ6GMs6-11" value="Only display is Content Control (so User controls instead of pages (Pages use frames))" style="text;strokeColor=none;fillColor=none;align=left;verticalAlign=middle;spacingLeft=4;spacingRight=4;overflow=hidden;points=[[0,0.5],[1,0.5]];portConstraint=eastwest;rotatable=0;whiteSpace=wrap;html=1;" vertex="1" parent="wQ8Cvjj7H3a0NGJ6GMs6-9">
          <mxGeometry y="80" width="240" height="50" as="geometry" />
        </mxCell>
        <mxCell id="wQ8Cvjj7H3a0NGJ6GMs6-55" style="edgeStyle=orthogonalEdgeStyle;rounded=0;orthogonalLoop=1;jettySize=auto;html=1;" edge="1" parent="wQ8Cvjj7H3a0NGJ6GMs6-9" source="wQ8Cvjj7H3a0NGJ6GMs6-53">
          <mxGeometry relative="1" as="geometry">
            <mxPoint x="590" y="260" as="targetPoint" />
            <Array as="points">
              <mxPoint x="590" y="150" />
            </Array>
          </mxGeometry>
        </mxCell>
        <mxCell id="wQ8Cvjj7H3a0NGJ6GMs6-53" value="&lt;div&gt;Content Control bound to current view model&lt;/div&gt;" style="text;strokeColor=none;fillColor=none;align=left;verticalAlign=middle;spacingLeft=4;spacingRight=4;overflow=hidden;points=[[0,0.5],[1,0.5]];portConstraint=eastwest;rotatable=0;whiteSpace=wrap;html=1;" vertex="1" parent="wQ8Cvjj7H3a0NGJ6GMs6-9">
          <mxGeometry y="130" width="240" height="30" as="geometry" />
        </mxCell>
        <mxCell id="wQ8Cvjj7H3a0NGJ6GMs6-14" style="edgeStyle=orthogonalEdgeStyle;rounded=0;orthogonalLoop=1;jettySize=auto;html=1;" edge="1" parent="1" source="wQ8Cvjj7H3a0NGJ6GMs6-7" target="wQ8Cvjj7H3a0NGJ6GMs6-9">
          <mxGeometry relative="1" as="geometry" />
        </mxCell>
        <mxCell id="wQ8Cvjj7H3a0NGJ6GMs6-20" value="NaviStore" style="swimlane;fontStyle=0;childLayout=stackLayout;horizontal=1;startSize=30;horizontalStack=0;resizeParent=1;resizeParentMax=0;resizeLast=0;collapsible=1;marginBottom=0;whiteSpace=wrap;html=1;fillColor=#f5f5f5;fontColor=#333333;strokeColor=#666666;" vertex="1" parent="1">
          <mxGeometry x="250" y="10" width="220" height="90" as="geometry" />
        </mxCell>
        <mxCell id="wQ8Cvjj7H3a0NGJ6GMs6-21" value="hold current view model" style="text;strokeColor=none;fillColor=none;align=left;verticalAlign=middle;spacingLeft=4;spacingRight=4;overflow=hidden;points=[[0,0.5],[1,0.5]];portConstraint=eastwest;rotatable=0;whiteSpace=wrap;html=1;" vertex="1" parent="wQ8Cvjj7H3a0NGJ6GMs6-20">
          <mxGeometry y="30" width="220" height="30" as="geometry" />
        </mxCell>
        <mxCell id="wQ8Cvjj7H3a0NGJ6GMs6-22" value="CurrentViewModelChanged (event)" style="text;strokeColor=none;fillColor=none;align=left;verticalAlign=middle;spacingLeft=4;spacingRight=4;overflow=hidden;points=[[0,0.5],[1,0.5]];portConstraint=eastwest;rotatable=0;whiteSpace=wrap;html=1;" vertex="1" parent="wQ8Cvjj7H3a0NGJ6GMs6-20">
          <mxGeometry y="60" width="220" height="30" as="geometry" />
        </mxCell>
        <mxCell id="wQ8Cvjj7H3a0NGJ6GMs6-25" style="edgeStyle=orthogonalEdgeStyle;rounded=0;orthogonalLoop=1;jettySize=auto;html=1;" edge="1" parent="1" source="wQ8Cvjj7H3a0NGJ6GMs6-8" target="wQ8Cvjj7H3a0NGJ6GMs6-20">
          <mxGeometry relative="1" as="geometry">
            <Array as="points">
              <mxPoint x="150" y="295" />
              <mxPoint x="150" y="55" />
            </Array>
          </mxGeometry>
        </mxCell>
        <mxCell id="wQ8Cvjj7H3a0NGJ6GMs6-26" value="MainViewModel" style="swimlane;fontStyle=0;childLayout=stackLayout;horizontal=1;startSize=30;horizontalStack=0;resizeParent=1;resizeParentMax=0;resizeLast=0;collapsible=1;marginBottom=0;whiteSpace=wrap;html=1;fillColor=#d5e8d4;strokeColor=#82b366;" vertex="1" parent="1">
          <mxGeometry x="630" y="210" width="280" height="120" as="geometry" />
        </mxCell>
        <mxCell id="wQ8Cvjj7H3a0NGJ6GMs6-27" value="Current view model = nav store current model" style="text;strokeColor=none;fillColor=none;align=left;verticalAlign=middle;spacingLeft=4;spacingRight=4;overflow=hidden;points=[[0,0.5],[1,0.5]];portConstraint=eastwest;rotatable=0;whiteSpace=wrap;html=1;" vertex="1" parent="wQ8Cvjj7H3a0NGJ6GMs6-26">
          <mxGeometry y="30" width="280" height="30" as="geometry" />
        </mxCell>
        <mxCell id="wQ8Cvjj7H3a0NGJ6GMs6-28" value="Sub to nav store currentviewModelChanged" style="text;strokeColor=none;fillColor=none;align=left;verticalAlign=middle;spacingLeft=4;spacingRight=4;overflow=hidden;points=[[0,0.5],[1,0.5]];portConstraint=eastwest;rotatable=0;whiteSpace=wrap;html=1;" vertex="1" parent="wQ8Cvjj7H3a0NGJ6GMs6-26">
          <mxGeometry y="60" width="280" height="30" as="geometry" />
        </mxCell>
        <mxCell id="wQ8Cvjj7H3a0NGJ6GMs6-29" value="Item 3" style="text;strokeColor=none;fillColor=none;align=left;verticalAlign=middle;spacingLeft=4;spacingRight=4;overflow=hidden;points=[[0,0.5],[1,0.5]];portConstraint=eastwest;rotatable=0;whiteSpace=wrap;html=1;" vertex="1" parent="wQ8Cvjj7H3a0NGJ6GMs6-26">
          <mxGeometry y="90" width="280" height="30" as="geometry" />
        </mxCell>
        <mxCell id="wQ8Cvjj7H3a0NGJ6GMs6-30" style="edgeStyle=orthogonalEdgeStyle;rounded=0;orthogonalLoop=1;jettySize=auto;html=1;" edge="1" parent="1" source="wQ8Cvjj7H3a0NGJ6GMs6-22" target="wQ8Cvjj7H3a0NGJ6GMs6-28">
          <mxGeometry relative="1" as="geometry">
            <Array as="points">
              <mxPoint x="550" y="85" />
              <mxPoint x="550" y="280" />
            </Array>
          </mxGeometry>
        </mxCell>
        <mxCell id="wQ8Cvjj7H3a0NGJ6GMs6-31" value="&lt;div&gt;Questions&lt;/div&gt;&lt;div align=&quot;left&quot;&gt;&lt;ul&gt;&lt;li&gt;OnPropertyChanged - does that notify the xaml view to update?&lt;br&gt;&lt;/li&gt;&lt;/ul&gt;&lt;/div&gt;" style="text;html=1;strokeColor=#9673a6;fillColor=#e1d5e7;align=center;verticalAlign=middle;whiteSpace=wrap;rounded=0;" vertex="1" parent="1">
          <mxGeometry x="-230" y="90" width="240" height="100" as="geometry" />
        </mxCell>
        <mxCell id="wQ8Cvjj7H3a0NGJ6GMs6-32" value="First View" style="swimlane;fontStyle=0;childLayout=stackLayout;horizontal=1;startSize=30;horizontalStack=0;resizeParent=1;resizeParentMax=0;resizeLast=0;collapsible=1;marginBottom=0;whiteSpace=wrap;html=1;fillColor=#ffe6cc;strokeColor=#d79b00;" vertex="1" parent="1">
          <mxGeometry x="150" y="500" width="310" height="120" as="geometry" />
        </mxCell>
        <mxCell id="wQ8Cvjj7H3a0NGJ6GMs6-33" value="Has Button with Command Go to Random command" style="text;strokeColor=none;fillColor=none;align=left;verticalAlign=middle;spacingLeft=4;spacingRight=4;overflow=hidden;points=[[0,0.5],[1,0.5]];portConstraint=eastwest;rotatable=0;whiteSpace=wrap;html=1;" vertex="1" parent="wQ8Cvjj7H3a0NGJ6GMs6-32">
          <mxGeometry y="30" width="310" height="30" as="geometry" />
        </mxCell>
        <mxCell id="wQ8Cvjj7H3a0NGJ6GMs6-34" value="Item 2" style="text;strokeColor=none;fillColor=none;align=left;verticalAlign=middle;spacingLeft=4;spacingRight=4;overflow=hidden;points=[[0,0.5],[1,0.5]];portConstraint=eastwest;rotatable=0;whiteSpace=wrap;html=1;" vertex="1" parent="wQ8Cvjj7H3a0NGJ6GMs6-32">
          <mxGeometry y="60" width="310" height="30" as="geometry" />
        </mxCell>
        <mxCell id="wQ8Cvjj7H3a0NGJ6GMs6-35" value="Item 3" style="text;strokeColor=none;fillColor=none;align=left;verticalAlign=middle;spacingLeft=4;spacingRight=4;overflow=hidden;points=[[0,0.5],[1,0.5]];portConstraint=eastwest;rotatable=0;whiteSpace=wrap;html=1;" vertex="1" parent="wQ8Cvjj7H3a0NGJ6GMs6-32">
          <mxGeometry y="90" width="310" height="30" as="geometry" />
        </mxCell>
        <mxCell id="wQ8Cvjj7H3a0NGJ6GMs6-36" value="FirstViewModel" style="swimlane;fontStyle=0;childLayout=stackLayout;horizontal=1;startSize=30;horizontalStack=0;resizeParent=1;resizeParentMax=0;resizeLast=0;collapsible=1;marginBottom=0;whiteSpace=wrap;html=1;fillColor=#ffe6cc;strokeColor=#d79b00;" vertex="1" parent="1">
          <mxGeometry x="460" y="500" width="290" height="120" as="geometry" />
        </mxCell>
        <mxCell id="wQ8Cvjj7H3a0NGJ6GMs6-37" value="Has a variable ICommand" style="text;align=left;verticalAlign=middle;spacingLeft=4;spacingRight=4;overflow=hidden;points=[[0,0.5],[1,0.5]];portConstraint=eastwest;rotatable=0;whiteSpace=wrap;html=1;" vertex="1" parent="wQ8Cvjj7H3a0NGJ6GMs6-36">
          <mxGeometry y="30" width="290" height="30" as="geometry" />
        </mxCell>
        <mxCell id="wQ8Cvjj7H3a0NGJ6GMs6-38" value="the ICommand is initiated in the constructor" style="text;strokeColor=none;fillColor=none;align=left;verticalAlign=middle;spacingLeft=4;spacingRight=4;overflow=hidden;points=[[0,0.5],[1,0.5]];portConstraint=eastwest;rotatable=0;whiteSpace=wrap;html=1;" vertex="1" parent="wQ8Cvjj7H3a0NGJ6GMs6-36">
          <mxGeometry y="60" width="290" height="30" as="geometry" />
        </mxCell>
        <mxCell id="wQ8Cvjj7H3a0NGJ6GMs6-39" value="Used a NavigateCommand" style="text;strokeColor=none;fillColor=none;align=left;verticalAlign=middle;spacingLeft=4;spacingRight=4;overflow=hidden;points=[[0,0.5],[1,0.5]];portConstraint=eastwest;rotatable=0;whiteSpace=wrap;html=1;" vertex="1" parent="wQ8Cvjj7H3a0NGJ6GMs6-36">
          <mxGeometry y="90" width="290" height="30" as="geometry" />
        </mxCell>
        <mxCell id="wQ8Cvjj7H3a0NGJ6GMs6-41" style="edgeStyle=orthogonalEdgeStyle;rounded=0;orthogonalLoop=1;jettySize=auto;html=1;entryX=0.138;entryY=-0.017;entryDx=0;entryDy=0;entryPerimeter=0;" edge="1" parent="1" source="wQ8Cvjj7H3a0NGJ6GMs6-6" target="wQ8Cvjj7H3a0NGJ6GMs6-36">
          <mxGeometry relative="1" as="geometry">
            <Array as="points">
              <mxPoint x="-5" y="430" />
              <mxPoint x="500" y="430" />
            </Array>
          </mxGeometry>
        </mxCell>
        <mxCell id="wQ8Cvjj7H3a0NGJ6GMs6-42" value="Navigate Command" style="swimlane;fontStyle=0;childLayout=stackLayout;horizontal=1;startSize=30;horizontalStack=0;resizeParent=1;resizeParentMax=0;resizeLast=0;collapsible=1;marginBottom=0;whiteSpace=wrap;html=1;fillColor=#f8cecc;strokeColor=#b85450;" vertex="1" parent="1">
          <mxGeometry x="840" y="660" width="330" height="120" as="geometry" />
        </mxCell>
        <mxCell id="wQ8Cvjj7H3a0NGJ6GMs6-43" value="Execute function turns navStore current view to new view" style="text;strokeColor=none;fillColor=none;align=left;verticalAlign=middle;spacingLeft=4;spacingRight=4;overflow=hidden;points=[[0,0.5],[1,0.5]];portConstraint=eastwest;rotatable=0;whiteSpace=wrap;html=1;" vertex="1" parent="wQ8Cvjj7H3a0NGJ6GMs6-42">
          <mxGeometry y="30" width="330" height="30" as="geometry" />
        </mxCell>
        <mxCell id="wQ8Cvjj7H3a0NGJ6GMs6-44" value="Item 2" style="text;strokeColor=none;fillColor=none;align=left;verticalAlign=middle;spacingLeft=4;spacingRight=4;overflow=hidden;points=[[0,0.5],[1,0.5]];portConstraint=eastwest;rotatable=0;whiteSpace=wrap;html=1;" vertex="1" parent="wQ8Cvjj7H3a0NGJ6GMs6-42">
          <mxGeometry y="60" width="330" height="30" as="geometry" />
        </mxCell>
        <mxCell id="wQ8Cvjj7H3a0NGJ6GMs6-45" value="Item 3" style="text;strokeColor=none;fillColor=none;align=left;verticalAlign=middle;spacingLeft=4;spacingRight=4;overflow=hidden;points=[[0,0.5],[1,0.5]];portConstraint=eastwest;rotatable=0;whiteSpace=wrap;html=1;" vertex="1" parent="wQ8Cvjj7H3a0NGJ6GMs6-42">
          <mxGeometry y="90" width="330" height="30" as="geometry" />
        </mxCell>
        <mxCell id="wQ8Cvjj7H3a0NGJ6GMs6-46" style="edgeStyle=orthogonalEdgeStyle;rounded=0;orthogonalLoop=1;jettySize=auto;html=1;" edge="1" parent="1" source="wQ8Cvjj7H3a0NGJ6GMs6-39" target="wQ8Cvjj7H3a0NGJ6GMs6-42">
          <mxGeometry relative="1" as="geometry" />
        </mxCell>
        <mxCell id="wQ8Cvjj7H3a0NGJ6GMs6-47" style="edgeStyle=orthogonalEdgeStyle;rounded=0;orthogonalLoop=1;jettySize=auto;html=1;" edge="1" parent="1" source="wQ8Cvjj7H3a0NGJ6GMs6-43" target="wQ8Cvjj7H3a0NGJ6GMs6-20">
          <mxGeometry relative="1" as="geometry">
            <Array as="points">
              <mxPoint x="1210" y="705" />
              <mxPoint x="1210" y="33" />
            </Array>
          </mxGeometry>
        </mxCell>
        <mxCell id="wQ8Cvjj7H3a0NGJ6GMs6-48" value="Other Views / ViewModel" style="swimlane;fontStyle=0;childLayout=stackLayout;horizontal=1;startSize=30;horizontalStack=0;resizeParent=1;resizeParentMax=0;resizeLast=0;collapsible=1;marginBottom=0;whiteSpace=wrap;html=1;fillColor=#fff2cc;strokeColor=#d6b656;" vertex="1" parent="1">
          <mxGeometry x="930" y="440" width="230" height="120" as="geometry" />
        </mxCell>
        <mxCell id="wQ8Cvjj7H3a0NGJ6GMs6-49" value="Has button" style="text;strokeColor=none;fillColor=none;align=left;verticalAlign=middle;spacingLeft=4;spacingRight=4;overflow=hidden;points=[[0,0.5],[1,0.5]];portConstraint=eastwest;rotatable=0;whiteSpace=wrap;html=1;" vertex="1" parent="wQ8Cvjj7H3a0NGJ6GMs6-48">
          <mxGeometry y="30" width="230" height="30" as="geometry" />
        </mxCell>
        <mxCell id="wQ8Cvjj7H3a0NGJ6GMs6-50" value="Has ICommand Variable" style="text;strokeColor=none;fillColor=none;align=left;verticalAlign=middle;spacingLeft=4;spacingRight=4;overflow=hidden;points=[[0,0.5],[1,0.5]];portConstraint=eastwest;rotatable=0;whiteSpace=wrap;html=1;" vertex="1" parent="wQ8Cvjj7H3a0NGJ6GMs6-48">
          <mxGeometry y="60" width="230" height="30" as="geometry" />
        </mxCell>
        <mxCell id="wQ8Cvjj7H3a0NGJ6GMs6-51" value="ICommand variable set in constructor" style="text;strokeColor=none;fillColor=none;align=left;verticalAlign=middle;spacingLeft=4;spacingRight=4;overflow=hidden;points=[[0,0.5],[1,0.5]];portConstraint=eastwest;rotatable=0;whiteSpace=wrap;html=1;" vertex="1" parent="wQ8Cvjj7H3a0NGJ6GMs6-48">
          <mxGeometry y="90" width="230" height="30" as="geometry" />
        </mxCell>
        <mxCell id="wQ8Cvjj7H3a0NGJ6GMs6-52" style="edgeStyle=orthogonalEdgeStyle;rounded=0;orthogonalLoop=1;jettySize=auto;html=1;exitX=1;exitY=0.5;exitDx=0;exitDy=0;" edge="1" parent="1" source="wQ8Cvjj7H3a0NGJ6GMs6-51" target="wQ8Cvjj7H3a0NGJ6GMs6-42">
          <mxGeometry relative="1" as="geometry">
            <Array as="points">
              <mxPoint x="1180" y="545" />
              <mxPoint x="1180" y="610" />
              <mxPoint x="1080" y="610" />
            </Array>
          </mxGeometry>
        </mxCell>
        <mxCell id="wQ8Cvjj7H3a0NGJ6GMs6-54" style="edgeStyle=orthogonalEdgeStyle;rounded=0;orthogonalLoop=1;jettySize=auto;html=1;" edge="1" parent="1" source="wQ8Cvjj7H3a0NGJ6GMs6-28" target="wQ8Cvjj7H3a0NGJ6GMs6-53">
          <mxGeometry relative="1" as="geometry">
            <Array as="points">
              <mxPoint x="560" y="285" />
              <mxPoint x="560" y="370" />
            </Array>
          </mxGeometry>
        </mxCell>
        <mxCell id="wQ8Cvjj7H3a0NGJ6GMs6-56" value="" style="shape=flexArrow;endArrow=classic;startArrow=classic;html=1;rounded=0;exitX=1;exitY=0.25;exitDx=0;exitDy=0;entryX=0.004;entryY=0.175;entryDx=0;entryDy=0;entryPerimeter=0;" edge="1" parent="1" source="wQ8Cvjj7H3a0NGJ6GMs6-36" target="wQ8Cvjj7H3a0NGJ6GMs6-48">
          <mxGeometry width="100" height="100" relative="1" as="geometry">
            <mxPoint x="790" y="560" as="sourcePoint" />
            <mxPoint x="890" y="460" as="targetPoint" />
          </mxGeometry>
        </mxCell>
      </root>
    </mxGraphModel>
  </diagram>
</mxfile>
